<svg width="512" height="512" viewBox="0 0 512 512" fill="none" xmlns="http://www.w3.org/2000/svg">
<circle cx="256" cy="256" r="256" fill="#FEFEFF"/>
<g opacity="0.15">
<path d="M244.752 302.113L245.219 164.157H300.864V402.248H246.457V359.931H243.977C238.603 373.261 229.768 384.163 217.471 392.637C205.277 401.111 190.241 405.348 172.364 405.348C156.759 405.348 142.964 401.886 130.977 394.962C119.093 387.935 109.792 377.756 103.075 364.426C96.3585 350.992 93 334.768 93 315.754V199.075L149.112 164.157V307.073C149.112 322.161 153.246 334.148 161.513 343.035C169.78 351.922 180.631 356.365 194.064 356.365C202.332 356.365 210.34 354.35 218.091 350.32C225.841 346.29 232.196 340.296 237.156 332.339C242.22 324.279 244.752 314.204 244.752 302.113Z" fill="#2C2C2E"/>
<path d="M213.409 402.248C213.409 402.248 227.377 395.264 237.853 381.296C243.964 373.148 243.964 359.907 243.964 359.907L244.837 264.573V116.34L302.008 80.984V354.04H406.9L441.824 402.248H213.409Z" fill="#2C2C2E"/>
</g>
<path d="M250.928 295.129L251.395 157.173H307.04V395.264H252.633V352.947H250.153C244.779 366.277 235.944 377.179 223.646 385.653C211.453 394.127 196.417 398.364 178.539 398.364C162.935 398.364 149.14 394.902 137.153 387.978C125.269 380.951 115.968 370.772 109.251 357.442C102.534 344.008 99.176 327.784 99.176 308.77V192.091L155.288 157.173V300.089C155.288 315.177 159.422 327.164 167.689 336.051C175.956 344.938 186.807 349.381 200.24 349.381C208.507 349.381 216.516 347.366 224.267 343.336C232.017 339.306 238.372 333.312 243.332 325.355C248.396 317.295 250.928 307.22 250.928 295.129Z" fill="#0F172A"/>
<path d="M219.585 395.264C219.585 395.264 233.553 388.28 244.029 374.312C250.14 366.164 250.14 352.923 250.14 352.923L251.013 257.589V109.356L308.184 74V347.056H413.076L448 395.264H219.585Z" fill="#FFC72C"/>
</svg>
