<svg width="512" height="512" viewBox="0 0 512 512" fill="none" xmlns="http://www.w3.org/2000/svg">
<circle cx="256" cy="256" r="256" fill="#202529"/>
<g opacity="0.15">
<path d="M250.752 302.115L251.219 164.158H306.864V402.25H252.457V359.933H249.977C244.603 373.263 235.768 384.166 223.471 392.639C211.277 401.113 196.241 405.35 178.364 405.35C162.759 405.35 148.964 401.888 136.977 394.964C125.093 387.937 115.792 377.759 109.075 364.428C102.358 350.994 99 334.77 99 315.755V199.075L155.112 164.158V307.075C155.112 322.162 159.246 334.15 167.513 343.037C175.78 351.924 186.631 356.367 200.064 356.367C208.332 356.367 216.34 354.352 224.091 350.322C231.841 346.292 238.196 340.298 243.156 332.341C248.22 324.281 250.752 314.205 250.752 302.115Z" fill="#202529"/>
<path d="M219.409 402.25C219.409 402.25 233.377 395.266 243.853 381.298C249.964 373.15 249.964 359.909 249.964 359.909L250.837 264.574V116.341L308.008 80.984V354.042H412.9L447.824 402.25H219.409Z" fill="#202529"/>
</g>
<path d="M256.928 295.131L257.395 157.174H313.04V395.266H258.633V352.949H256.153C250.779 366.279 241.944 377.182 229.647 385.655C217.453 394.129 202.417 398.366 184.54 398.366C168.936 398.366 155.14 394.904 143.153 387.98C131.269 380.953 121.968 370.775 115.251 357.444C108.535 344.01 105.176 327.786 105.176 308.771V192.091L161.289 157.174V300.091C161.289 315.178 165.422 327.166 173.689 336.053C181.956 344.94 192.807 349.383 206.241 349.383C214.508 349.383 222.516 347.368 230.267 343.338C238.017 339.308 244.372 333.314 249.332 325.357C254.396 317.297 256.928 307.221 256.928 295.131Z" fill="#FEFEFF"/>
<path d="M225.585 395.266C225.585 395.266 239.553 388.282 250.029 374.314C256.14 366.166 256.14 352.925 256.14 352.925L257.013 257.59V109.357L314.184 74V347.058H419.076L454 395.266H225.585Z" fill="#FFC72C"/>
</svg>
